<svg xmlns="http://www.w3.org/2000/svg" viewBox="0 0 512 512" width="512" height="512">
  <rect width="512" height="512" rx="112" fill="#1e293b"/>
  <path d="M256 120C180.9 120 120 180.9 120 256C120 331.1 180.9 392 256 392C331.1 392 392 331.1 392 256C392 180.9 331.1 120 256 120ZM273.5 156.4V240.2H357.3C349.5 197.8 316.4 163.7 273.5 156.4ZM238.5 156.4C192.5 164.5 156.5 204.6 156.5 256C156.5 307.4 192.5 347.5 238.5 355.6V156.4ZM273.5 355.6V275.2H357.3C349.5 317.6 316.4 351.7 273.5 355.6Z" fill="#3b82f6"/>
</svg>
